<svg xmlns="http://www.w3.org/2000/svg" viewBox="-40 -40 1080 894" width="1080" height="894"><path d="M 28.8 3.7 C 26.6 4.0 24.5 4.6 22.5 5.4 C 20.5 6.3 18.6 7.5 16.9 8.8 C 15.2 10.2 13.6 11.9 12.3 13.8 C 11.0 15.6 9.8 17.7 8.8 19.9 C 7.8 22.1 7.1 24.6 6.4 27.1 C 5.7 29.5 5.3 32.2 4.9 34.9 C 4.5 37.6 4.3 40.3 4.1 43.1 C 3.9 45.9 3.8 48.8 3.7 51.6 C 3.6 54.5 3.5 57.3 3.5 60.2 C 3.5 63.1 3.5 66.0 3.5 68.9 C 3.5 71.8 3.5 74.6 3.5 77.5 C 3.5 80.4 3.5 83.3 3.5 86.2 C 3.5 89.1 3.5 92.0 3.5 94.9 C 3.5 97.8 3.5 100.6 3.5 103.5 C 3.5 106.4 3.5 109.3 3.5 112.2 C 3.5 115.1 3.5 118.0 3.5 120.9 C 3.5 123.8 3.5 126.7 3.5 129.5 C 3.5 132.4 3.5 135.3 3.5 138.2 C 3.5 141.1 3.5 144.0 3.5 146.9 C 3.5 149.8 3.5 152.7 3.5 155.5 C 3.5 158.4 3.5 161.3 3.5 164.2 C 3.5 167.1 3.5 170.0 3.5 172.9 C 3.5 175.8 3.5 178.7 3.5 181.5 C 3.5 184.4 3.5 187.3 3.5 190.2 C 3.5 193.1 3.5 196.0 3.5 198.9 C 3.5 201.8 3.5 204.7 3.5 207.6 C 3.5 210.4 3.5 213.3 3.5 216.2 C 3.5 219.1 3.5 222.0 3.5 224.9 C 3.5 227.8 3.5 230.7 3.5 233.6 C 3.5 236.4 3.5 239.3 3.5 242.2 C 3.5 245.1 3.5 248.0 3.5 250.9 C 3.5 253.8 3.5 256.7 3.5 259.6 C 3.5 262.5 3.5 265.3 3.5 268.2 C 3.5 271.1 3.5 274.0 3.5 276.9 C 3.5 279.8 3.5 282.7 3.5 285.6 C 3.5 288.5 3.5 291.3 3.5 294.2 C 3.5 297.1 3.5 300.0 3.5 302.9 C 3.5 305.8 3.5 308.7 3.5 311.6 C 3.5 314.5 3.5 317.3 3.5 320.2 C 3.5 323.1 3.5 326.0 3.5 328.9 C 3.5 331.8 3.5 334.7 3.5 337.6 C 3.5 340.5 3.5 343.4 3.5 346.2 C 3.5 349.1 3.5 352.0 3.5 354.9 C 3.5 357.8 3.5 360.7 3.5 363.6 C 3.5 366.5 3.5 369.4 3.5 372.2 C 3.5 375.1 3.5 378.0 3.5 380.9 C 3.5 383.8 3.5 386.7 3.5 389.6 C 3.5 392.5 3.5 395.4 3.5 398.2 C 3.5 401.1 3.5 404.0 3.5 406.9 C 3.5 409.8 3.5 412.7 3.5 415.6 C 3.5 418.5 3.5 421.4 3.5 424.3 C 3.5 427.1 3.5 430.0 3.5 432.9 C 3.5 435.8 3.5 438.7 3.5 441.6 C 3.5 444.5 3.5 447.4 3.5 450.3 C 3.5 453.1 3.5 456.0 3.5 458.9 C 3.5 461.8 3.5 464.7 3.5 467.6 C 3.5 470.5 3.5 473.4 3.5 476.3 C 3.5 479.2 3.5 482.0 3.5 484.9 C 3.5 487.8 3.5 490.7 3.5 493.6 C 3.5 496.5 3.5 499.4 3.5 502.3 C 3.5 505.2 3.5 508.0 3.5 510.9 C 3.5 513.8 3.5 516.7 3.5 519.6 C 3.5 522.5 3.5 525.4 3.5 528.3 C 3.5 531.2 3.5 534.0 3.5 536.9 C 3.5 539.8 3.5 542.7 3.5 545.6 C 3.5 548.5 3.5 551.4 3.5 554.3 C 3.5 557.2 3.5 560.1 3.5 562.9 C 3.5 565.8 3.5 568.7 3.5 571.6 C 3.5 574.5 3.5 577.4 3.5 580.3 C 3.5 583.2 3.5 586.1 3.5 588.9 C 3.5 591.8 3.5 594.7 3.5 597.6 C 3.5 600.5 3.5 603.4 3.5 606.2 C 3.5 609.0 3.6 611.8 3.7 614.5 C 3.8 617.1 3.9 619.8 4.1 622.1 C 4.3 624.5 4.5 626.8 4.9 628.7 C 5.3 630.6 5.7 632.3 6.3 633.5 C 6.8 634.8 7.5 635.7 8.3 636.3 C 9.1 636.8 10.0 636.9 11.0 636.7 C 12.0 636.4 13.1 635.8 14.4 634.9 C 15.6 633.9 17.0 632.6 18.4 631.1 C 19.8 629.6 21.3 627.8 22.9 626.0 C 24.4 624.2 26.1 622.1 27.7 620.1 C 29.4 618.1 31.2 616.0 33.0 613.9 C 34.8 611.8 36.7 609.7 38.6 607.6 C 40.5 605.6 42.4 603.5 44.4 601.5 C 46.4 599.6 48.4 597.6 50.5 595.7 C 52.5 593.8 54.6 591.9 56.7 590.1 C 58.8 588.3 61.0 586.5 63.2 584.8 C 65.3 583.1 67.5 581.4 69.8 579.8 C 72.0 578.2 74.2 576.7 76.5 575.2 C 78.8 573.7 81.0 572.2 83.4 570.8 C 85.7 569.4 88.0 568.1 90.4 566.8 C 92.7 565.5 95.1 564.3 97.5 563.1 C 99.9 562.0 102.3 560.8 104.8 559.8 C 107.2 558.7 109.7 557.7 112.2 556.8 C 114.7 555.8 117.2 554.9 119.8 554.1 C 122.3 553.3 124.9 552.5 127.5 551.8 C 130.1 551.1 132.7 550.4 135.3 549.8 C 138.0 549.2 140.6 548.7 143.3 548.2 C 146.0 547.7 148.7 547.3 151.4 546.8 C 154.1 546.4 156.9 546.1 159.5 545.7 C 162.2 545.3 164.9 545.0 167.4 544.5 C 170.0 544.0 172.5 543.6 174.9 543.0 C 177.2 542.3 179.5 541.6 181.5 540.7 C 183.5 539.8 185.4 538.7 187.0 537.4 C 188.7 536.1 190.1 534.7 191.3 533.0 C 192.5 531.3 193.4 529.4 194.2 527.3 C 195.0 525.2 195.6 522.9 196.0 520.5 C 196.5 518.1 196.8 515.6 197.0 513.0 C 197.2 510.3 197.3 507.6 197.4 504.8 C 197.4 502.1 197.4 499.2 197.5 496.4 C 197.5 493.6 197.5 490.7 197.4 487.8 C 197.4 484.9 197.4 482.0 197.4 479.2 C 197.4 476.3 197.4 473.4 197.4 470.5 C 197.4 467.6 197.4 464.7 197.4 461.8 C 197.4 458.9 197.4 456.0 197.4 453.2 C 197.4 450.3 197.4 447.4 197.4 444.5 C 197.4 441.6 197.4 438.7 197.4 435.8 C 197.4 432.9 197.4 430.0 197.4 427.1 C 197.4 424.3 197.4 421.4 197.4 418.5 C 197.4 415.6 197.4 412.7 197.4 409.8 C 197.4 406.9 197.4 404.0 197.4 401.1 C 197.4 398.3 197.4 395.4 197.4 392.5 C 197.4 389.6 197.4 386.7 197.4 383.8 C 197.4 380.9 197.4 378.0 197.4 375.1 C 197.4 372.3 197.4 369.4 197.4 366.5 C 197.4 363.6 197.4 360.7 197.4 357.8 C 197.4 354.9 197.4 352.0 197.4 349.1 C 197.4 346.2 197.4 343.4 197.4 340.5 C 197.4 337.6 197.4 334.7 197.4 331.8 C 197.4 328.9 197.4 326.0 197.4 323.1 C 197.4 320.2 197.4 317.4 197.4 314.5 C 197.4 311.6 197.4 308.7 197.4 305.8 C 197.4 302.9 197.5 300.0 197.5 297.2 C 197.6 294.3 197.6 291.4 197.8 288.6 C 198.0 285.8 198.1 283.0 198.5 280.4 C 198.8 277.7 199.2 275.0 199.7 272.6 C 200.3 270.1 201.0 267.8 201.8 265.6 C 202.7 263.5 203.8 261.6 205.0 259.9 C 206.2 258.3 207.6 256.9 209.2 255.8 C 210.7 254.7 212.5 253.9 214.4 253.4 C 216.2 253.0 218.3 252.8 220.4 252.9 C 222.4 253.0 224.6 253.4 226.9 254.0 C 229.1 254.6 231.4 255.5 233.7 256.5 C 235.9 257.5 238.2 258.7 240.5 260.0 C 242.8 261.2 245.1 262.6 247.3 264.1 C 249.6 265.6 251.8 267.1 254.0 268.7 C 256.1 270.4 258.3 272.0 260.3 273.8 C 262.4 275.5 264.4 277.3 266.4 279.2 C 268.3 281.1 270.2 283.0 271.9 285.0 C 273.7 287.0 275.4 289.1 276.9 291.3 C 278.5 293.4 279.9 295.7 281.2 297.9 C 282.5 300.2 283.7 302.6 284.8 305.0 C 285.8 307.5 286.7 310.0 287.6 312.5 C 288.4 315.1 289.0 317.7 289.6 320.3 C 290.2 323.0 290.6 325.7 291.0 328.4 C 291.3 331.2 291.6 333.9 291.8 336.7 C 292.0 339.5 292.2 342.4 292.3 345.2 C 292.4 348.0 292.5 350.9 292.5 353.8 C 292.6 356.6 292.6 359.5 292.6 362.4 C 292.6 365.3 292.6 368.2 292.6 371.1 C 292.6 374.0 292.6 376.8 292.6 379.7 C 292.6 382.6 292.6 385.5 292.6 388.4 C 292.6 391.3 292.6 394.2 292.6 397.1 C 292.6 400.0 292.6 402.8 292.6 405.7 C 292.6 408.6 292.6 411.5 292.6 414.4 C 292.6 417.3 292.6 420.2 292.6 423.1 C 292.6 426.0 292.6 428.9 292.6 431.7 C 292.6 434.6 292.6 437.5 292.6 440.4 C 292.6 443.3 292.6 446.2 292.6 449.1 C 292.6 452.0 292.6 454.9 292.6 457.7 C 292.6 460.6 292.6 463.5 292.6 466.4 C 292.6 469.3 292.6 472.2 292.6 475.1 C 292.6 478.0 292.6 480.9 292.6 483.7 C 292.6 486.6 292.6 489.5 292.6 492.4 C 292.6 495.3 292.6 498.2 292.6 501.1 C 292.6 504.0 292.6 506.9 292.6 509.8 C 292.6 512.6 292.6 515.5 292.6 518.4 C 292.6 521.3 292.6 524.2 292.6 527.1 C 292.6 530.0 292.6 532.9 292.6 535.8 C 292.6 538.6 292.6 541.5 292.6 544.4 C 292.6 547.3 292.6 550.2 292.6 553.1 C 292.6 556.0 292.6 558.9 292.6 561.8 C 292.6 564.6 292.6 567.5 292.6 570.4 C 292.6 573.3 292.6 576.2 292.6 579.1 C 292.6 582.0 292.6 584.9 292.5 587.7 C 292.4 590.5 292.3 593.3 292.2 596.0 C 292.0 598.7 291.8 601.4 291.4 603.8 C 291.1 606.3 290.6 608.7 290.0 610.7 C 289.4 612.8 288.7 614.7 287.8 616.2 C 286.8 617.7 285.8 619.0 284.5 619.9 C 283.3 620.8 281.8 621.3 280.3 621.6 C 278.7 621.9 276.9 621.7 275.1 621.4 C 273.2 621.1 271.2 620.4 269.1 619.6 C 267.1 618.9 264.9 617.8 262.7 616.8 C 260.5 615.7 258.2 614.5 255.9 613.4 C 253.5 612.2 251.2 611.0 248.8 609.9 C 246.4 608.8 243.9 607.6 241.4 606.6 C 239.0 605.6 236.5 604.7 233.9 603.8 C 231.4 603.0 228.8 602.2 226.2 601.5 C 223.6 600.8 221.0 600.3 218.3 599.7 C 215.6 599.2 212.9 598.8 210.2 598.5 C 207.5 598.2 204.7 597.9 202.0 597.8 C 199.2 597.6 196.5 597.5 193.7 597.5 C 190.9 597.6 188.2 597.7 185.4 597.8 C 182.7 598.0 179.9 598.3 177.2 598.6 C 174.5 599.0 171.8 599.4 169.1 600.0 C 166.5 600.5 163.8 601.1 161.2 601.8 C 158.6 602.5 156.0 603.2 153.5 604.1 C 151.0 604.9 148.4 605.8 146.0 606.8 C 143.5 607.8 141.0 608.9 138.6 610.0 C 136.2 611.2 133.8 612.4 131.5 613.7 C 129.1 615.0 126.8 616.3 124.5 617.8 C 122.2 619.2 120.0 620.7 117.7 622.3 C 115.5 623.8 113.3 625.5 111.2 627.2 C 109.1 628.9 107.0 630.7 105.0 632.5 C 103.0 634.4 101.0 636.3 99.1 638.2 C 97.2 640.2 95.3 642.2 93.6 644.3 C 91.8 646.4 90.1 648.5 88.5 650.7 C 86.9 652.9 85.4 655.1 83.9 657.4 C 82.5 659.7 81.1 662.0 79.8 664.3 C 78.6 666.7 77.4 669.1 76.3 671.5 C 75.2 674.0 74.2 676.5 73.3 679.0 C 72.4 681.5 71.6 684.0 70.9 686.6 C 70.2 689.2 69.6 691.9 69.1 694.5 C 68.6 697.2 68.3 699.9 68.0 702.6 C 67.7 705.3 67.5 708.0 67.4 710.7 C 67.3 713.5 67.4 716.2 67.5 718.9 C 67.6 721.6 67.9 724.3 68.2 727.0 C 68.6 729.7 69.1 732.4 69.7 735.0 C 70.3 737.6 70.9 740.2 71.8 742.7 C 72.6 745.3 73.5 747.8 74.6 750.2 C 75.6 752.7 76.7 755.1 78.0 757.4 C 79.3 759.8 80.6 762.1 82.1 764.3 C 83.5 766.6 85.1 768.8 86.7 770.9 C 88.4 773.0 90.2 775.1 92.0 777.1 C 93.8 779.1 95.7 781.0 97.7 782.8 C 99.7 784.6 101.7 786.4 103.8 788.1 C 106.0 789.7 108.1 791.3 110.4 792.8 C 112.6 794.3 114.9 795.7 117.2 797.0 C 119.6 798.3 122.0 799.5 124.4 800.6 C 126.8 801.7 129.3 802.7 131.8 803.7 C 134.3 804.6 136.8 805.4 139.4 806.2 C 142.0 806.9 144.6 807.6 147.2 808.1 C 149.9 808.7 152.5 809.2 155.2 809.6 C 157.9 810.0 160.6 810.3 163.3 810.5 C 166.0 810.8 168.8 810.9 171.5 811.0 C 174.2 811.1 177.0 811.1 179.7 811.0 C 182.5 810.9 185.2 810.8 187.9 810.6 C 190.7 810.3 193.4 810.0 196.1 809.7 C 198.8 809.3 201.5 808.9 204.1 808.4 C 206.8 807.9 209.5 807.3 212.1 806.7 C 214.7 806.0 217.3 805.3 219.9 804.6 C 222.4 803.8 225.0 803.0 227.5 802.1 C 230.0 801.2 232.5 800.3 235.0 799.3 C 237.5 798.3 239.9 797.2 242.3 796.1 C 244.8 794.9 247.2 793.7 249.5 792.5 C 251.9 791.3 254.3 789.9 256.6 788.6 C 258.9 787.2 261.2 785.8 263.5 784.3 C 265.8 782.9 268.0 781.3 270.2 779.7 C 272.4 778.1 274.6 776.5 276.8 774.8 C 278.9 773.1 281.0 771.3 283.1 769.5 C 285.2 767.7 287.2 765.8 289.2 763.9 C 291.2 762.0 293.1 760.0 295.0 758.0 C 296.9 756.0 298.7 753.9 300.5 751.8 C 302.3 749.7 304.0 747.6 305.6 745.4 C 307.3 743.2 308.9 741.0 310.5 738.8 C 312.0 736.6 313.5 734.3 314.9 732.0 C 316.4 729.7 317.8 727.4 319.1 725.1 C 320.4 722.7 321.6 720.4 322.8 718.0 C 324.0 715.6 325.2 713.1 326.3 710.7 C 327.3 708.3 328.4 705.8 329.3 703.3 C 330.3 700.8 331.2 698.3 332.0 695.8 C 332.9 693.2 333.7 690.7 334.4 688.1 C 335.1 685.5 335.8 682.9 336.4 680.2 C 337.0 677.6 337.5 674.9 338.0 672.2 C 338.5 669.5 338.9 666.8 339.3 664.1 C 339.7 661.4 340.0 658.6 340.3 655.8 C 340.6 653.1 340.8 650.3 341.0 647.5 C 341.2 644.7 341.4 641.9 341.6 639.0 C 341.8 636.2 341.9 633.4 342.0 630.6 C 342.1 627.7 342.3 624.9 342.3 622.0 C 342.4 619.2 342.5 616.3 342.6 613.4 C 342.6 610.6 342.7 607.7 342.7 604.8 C 342.8 602.0 342.8 599.1 342.8 596.2 C 342.8 593.3 342.8 590.4 342.8 587.6 C 342.9 584.7 342.9 581.8 342.9 578.9 C 342.9 576.0 342.9 573.1 342.9 570.2 C 342.9 567.3 342.9 564.4 342.9 561.6 C 342.9 558.7 342.9 555.8 342.9 552.9 C 342.9 550.0 342.9 547.1 342.9 544.2 C 342.9 541.3 342.9 538.4 342.9 535.6 C 342.9 532.7 342.9 529.8 342.9 526.9 C 342.9 524.0 342.9 521.1 342.9 518.2 C 342.9 515.3 342.9 512.4 342.9 509.5 C 342.9 506.7 342.9 503.8 342.9 500.9 C 342.9 498.0 342.9 495.1 342.9 492.2 C 342.9 489.3 342.9 486.4 342.9 483.5 C 342.9 480.7 342.9 477.8 342.9 474.9 C 342.9 472.0 342.9 469.1 342.9 466.2 C 342.9 463.3 342.9 460.4 342.9 457.5 C 342.9 454.7 342.9 451.8 342.9 448.9 C 342.9 446.0 342.9 443.1 342.9 440.2 C 342.9 437.3 342.9 434.4 342.9 431.5 C 342.9 428.6 342.9 425.8 342.9 422.9 C 342.9 420.0 342.9 417.1 342.9 414.2 C 342.9 411.3 342.9 408.4 342.9 405.5 C 342.9 402.6 342.9 399.8 342.9 396.9 C 342.9 394.0 342.9 391.1 342.9 388.2 C 342.9 385.3 342.9 382.4 342.9 379.5 C 342.9 376.6 342.9 373.7 342.9 370.9 C 342.9 368.0 342.9 365.1 342.9 362.2 C 342.9 359.3 342.9 356.4 342.9 353.5 C 342.9 350.6 342.9 347.7 342.9 344.9 C 342.9 342.0 342.9 339.1 342.9 336.2 C 342.9 333.3 342.9 330.4 342.9 327.5 C 342.9 324.6 342.9 321.7 342.9 318.9 C 342.9 316.0 342.9 313.1 342.9 310.2 C 342.9 307.3 342.9 304.4 342.9 301.5 C 343.0 298.7 343.0 295.8 343.1 292.9 C 343.2 290.1 343.3 287.2 343.4 284.4 C 343.6 281.6 343.8 278.8 344.1 276.0 C 344.4 273.3 344.7 270.5 345.2 267.8 C 345.7 265.1 346.3 262.5 347.0 259.9 C 347.8 257.3 348.6 254.8 349.6 252.4 C 350.6 249.9 351.7 247.6 353.0 245.3 C 354.3 243.0 355.8 240.8 357.3 238.7 C 358.9 236.7 360.6 234.7 362.4 232.8 C 364.3 230.9 366.2 229.1 368.2 227.4 C 370.3 225.7 372.4 224.1 374.6 222.5 C 376.7 221.0 379.0 219.5 381.3 218.1 C 383.5 216.7 385.9 215.4 388.2 214.1 C 390.5 212.7 392.9 211.5 395.3 210.2 C 397.6 208.9 400.0 207.7 402.4 206.4 C 404.7 205.2 407.1 204.0 409.5 202.7 C 411.9 201.5 414.3 200.3 416.6 199.0 C 419.0 197.8 421.4 196.6 423.8 195.3 C 426.2 194.1 428.5 192.9 430.9 191.7 C 433.3 190.4 435.7 189.2 438.1 188.0 C 440.5 186.8 442.9 185.6 445.2 184.4 C 447.6 183.2 450.0 182.0 452.4 180.7 C 454.8 179.5 457.2 178.3 459.6 177.1 C 461.9 175.9 464.3 174.6 466.7 173.4 C 469.1 172.2 471.5 170.9 473.8 169.7 C 476.2 168.5 478.6 167.2 481.0 166.0 C 483.3 164.8 485.7 163.5 488.1 162.3 C 490.5 161.1 492.9 159.9 495.3 158.7 C 497.6 157.4 500.0 156.2 502.4 155.0 C 504.8 153.8 507.2 152.6 509.6 151.5 C 512.0 150.3 514.4 149.1 516.8 147.9 C 519.2 146.7 521.6 145.5 524.0 144.2 C 526.4 143.0 528.7 141.8 531.1 140.6 C 533.5 139.4 535.9 138.1 538.2 136.9 C 540.6 135.6 543.0 134.4 545.4 133.2 C 547.7 131.9 550.1 130.7 552.5 129.4 C 554.9 128.2 557.3 127.0 559.6 125.8 C 562.0 124.5 564.4 123.3 566.8 122.1 C 569.2 120.9 571.6 119.7 574.0 118.6 C 576.4 117.4 578.8 116.2 581.2 115.0 C 583.6 113.8 586.0 112.6 588.4 111.5 C 590.8 110.3 593.2 109.1 595.6 107.9 C 598.0 106.7 600.4 105.5 602.8 104.3 C 605.2 103.1 607.6 101.9 609.9 100.7 C 612.3 99.5 614.7 98.3 617.1 97.1 C 619.5 95.8 621.9 94.6 624.3 93.4 C 626.6 92.2 629.0 90.9 631.4 89.7 C 633.8 88.5 636.2 87.3 638.6 86.1 C 641.0 85.0 643.4 83.8 645.8 82.7 C 648.1 81.6 650.5 80.6 652.9 79.7 C 655.3 78.8 657.6 77.9 659.9 77.3 C 662.2 76.7 664.5 76.2 666.7 76.0 C 668.9 75.8 671.0 75.9 672.9 76.2 C 674.9 76.5 676.7 77.1 678.4 78.0 C 680.0 78.9 681.5 80.2 682.8 81.6 C 684.1 83.1 685.2 84.9 686.1 86.9 C 687.1 88.9 687.8 91.1 688.4 93.5 C 689.0 95.9 689.4 98.4 689.8 101.1 C 690.1 103.7 690.3 106.5 690.5 109.2 C 690.7 112.0 690.7 114.9 690.8 117.7 C 690.9 120.6 690.9 123.5 690.9 126.3 C 690.9 129.2 690.9 132.1 690.9 135.0 C 690.9 137.9 690.9 140.8 690.9 143.7 C 690.9 146.6 690.9 149.4 690.9 152.3 C 690.9 155.2 690.9 158.1 690.9 161.0 C 690.9 163.9 690.9 166.8 690.9 169.7 C 690.9 172.6 690.9 175.5 690.9 178.3 C 690.9 181.2 690.9 184.1 690.9 187.0 C 690.9 189.9 690.9 192.8 690.9 195.7 C 690.9 198.6 690.9 201.5 690.9 204.3 C 690.9 207.2 690.9 210.1 690.9 213.0 C 690.9 215.9 690.9 218.8 690.9 221.7 C 690.9 224.6 690.9 227.5 690.9 230.3 C 690.9 233.2 690.9 236.1 690.9 239.0 C 690.9 241.9 690.9 244.8 690.9 247.7 C 690.9 250.6 690.9 253.5 690.9 256.4 C 690.9 259.2 690.9 262.1 690.9 265.0 C 690.9 267.9 690.9 270.8 690.9 273.7 C 690.9 276.6 690.9 279.5 690.9 282.4 C 690.9 285.2 690.9 288.1 690.9 291.0 C 690.9 293.9 690.9 296.8 690.9 299.7 C 690.9 302.6 690.9 305.5 690.9 308.4 C 690.9 311.2 690.9 314.1 690.9 317.0 C 690.9 319.9 690.9 322.8 690.9 325.7 C 690.9 328.6 690.9 331.5 690.9 334.4 C 690.9 337.3 690.9 340.1 690.9 343.0 C 690.9 345.9 690.9 348.8 690.9 351.7 C 690.9 354.6 690.9 357.5 690.9 360.4 C 690.9 363.3 690.9 366.1 690.9 369.0 C 690.9 371.9 690.9 374.8 690.9 377.7 C 690.9 380.6 690.9 383.5 690.9 386.4 C 690.9 389.3 690.9 392.2 690.9 395.0 C 690.9 397.9 690.9 400.8 690.9 403.7 C 690.9 406.6 690.9 409.5 690.9 412.4 C 690.9 415.3 690.9 418.2 690.9 421.0 C 690.9 423.9 690.9 426.8 690.9 429.7 C 690.9 432.6 690.9 435.5 690.9 438.4 C 690.9 441.3 690.9 444.2 690.9 447.0 C 690.9 449.9 690.9 452.8 690.9 455.7 C 690.9 458.6 690.9 461.5 690.9 464.4 C 690.9 467.3 690.9 470.2 690.9 473.1 C 690.9 475.9 690.9 478.8 690.9 481.7 C 690.9 484.6 690.9 487.5 690.9 490.4 C 690.9 493.3 690.9 496.2 690.9 499.1 C 690.9 501.9 690.9 504.8 690.9 507.7 C 690.9 510.6 690.9 513.5 690.9 516.4 C 690.9 519.3 690.9 522.2 690.9 525.1 C 690.9 527.9 690.9 530.8 690.9 533.7 C 690.9 536.6 690.9 539.5 690.8 542.4 C 690.8 545.2 690.8 548.1 690.7 551.0 C 690.6 553.8 690.5 556.7 690.3 559.5 C 690.1 562.3 689.9 565.1 689.5 567.8 C 689.1 570.5 688.7 573.3 688.1 575.9 C 687.6 578.5 686.9 581.1 686.0 583.5 C 685.1 586.0 684.1 588.4 682.9 590.7 C 681.8 592.9 680.4 595.1 678.9 597.2 C 677.4 599.2 675.7 601.2 673.9 603.0 C 672.1 604.8 670.2 606.5 668.1 608.1 C 666.1 609.7 663.9 611.2 661.7 612.6 C 659.5 614.0 657.2 615.3 654.8 616.6 C 652.5 617.9 650.1 619.0 647.7 620.2 C 645.3 621.3 642.9 622.4 640.4 623.5 C 638.0 624.6 635.5 625.7 633.1 626.7 C 630.6 627.8 628.2 628.8 625.7 629.9 C 623.3 630.9 620.8 631.9 618.4 633.0 C 615.9 634.0 613.4 635.1 611.0 636.1 C 608.5 637.1 606.1 638.2 603.6 639.2 C 601.2 640.3 598.7 641.3 596.2 642.4 C 593.8 643.4 591.3 644.4 588.9 645.5 C 586.4 646.5 583.9 647.6 581.5 648.6 C 579.0 649.6 576.6 650.7 574.1 651.7 C 571.7 652.8 569.2 653.8 566.7 654.8 C 564.3 655.9 561.8 656.9 559.4 658.0 C 556.9 659.0 554.4 660.0 552.0 661.1 C 549.5 662.1 547.0 663.1 544.6 664.2 C 542.1 665.2 539.7 666.2 537.2 667.2 C 534.7 668.3 532.3 669.3 529.8 670.3 C 527.3 671.4 524.9 672.4 522.4 673.4 C 520.0 674.5 517.5 675.5 515.0 676.5 C 512.6 677.6 510.1 678.6 507.7 679.7 C 505.2 680.7 502.8 681.8 500.3 682.8 C 497.9 683.9 495.4 684.9 492.9 686.0 C 490.5 687.0 488.0 688.1 485.6 689.1 C 483.1 690.2 480.7 691.2 478.2 692.3 C 475.8 693.3 473.3 694.4 470.9 695.4 C 468.4 696.4 465.9 697.5 463.5 698.5 C 461.0 699.6 458.6 700.6 456.1 701.7 C 453.7 702.7 451.2 703.8 448.7 704.8 C 446.3 705.8 443.8 706.9 441.4 707.9 C 438.9 709.0 436.4 710.0 434.0 711.0 C 431.5 712.1 429.1 713.1 426.6 714.2 C 424.2 715.2 421.7 716.2 419.2 717.3 C 416.8 718.3 414.3 719.4 411.9 720.4 C 409.5 721.5 407.1 722.6 404.7 723.8 C 402.3 724.9 400.0 726.1 397.7 727.3 C 395.4 728.5 393.2 729.8 391.0 731.2 C 388.9 732.6 386.8 734.1 384.8 735.6 C 382.8 737.2 380.9 738.9 379.1 740.7 C 377.3 742.4 375.6 744.3 374.0 746.2 C 372.5 748.2 371.0 750.2 369.7 752.3 C 368.4 754.4 367.3 756.5 366.4 758.6 C 365.5 760.7 364.7 762.8 364.2 764.7 C 363.8 766.7 363.5 768.6 363.6 770.3 C 363.7 772.0 364.1 773.6 364.7 775.0 C 365.4 776.3 366.4 777.4 367.6 778.3 C 368.8 779.1 370.3 779.7 372.0 780.1 C 373.7 780.5 375.7 780.5 377.8 780.4 C 379.9 780.3 382.1 780.0 384.4 779.5 C 386.7 779.1 389.1 778.4 391.5 777.6 C 394.0 776.9 396.4 776.0 398.9 775.2 C 401.4 774.3 403.9 773.3 406.3 772.3 C 408.8 771.3 411.3 770.3 413.7 769.3 C 416.2 768.3 418.7 767.3 421.2 766.3 C 423.6 765.2 426.1 764.2 428.6 763.2 C 431.0 762.2 433.5 761.2 436.0 760.1 C 438.4 759.1 440.9 758.1 443.4 757.1 C 445.8 756.1 448.3 755.1 450.8 754.0 C 453.2 753.0 455.7 752.0 458.2 751.0 C 460.6 750.0 463.1 749.0 465.6 748.0 C 468.1 747.0 470.5 746.0 473.0 745.0 C 475.5 743.9 477.9 742.9 480.4 741.9 C 482.9 740.9 485.4 739.9 487.8 738.9 C 490.3 737.9 492.8 736.9 495.2 735.8 C 497.7 734.8 500.2 733.8 502.6 732.7 C 505.1 731.7 507.5 730.7 510.0 729.6 C 512.4 728.6 514.9 727.5 517.4 726.5 C 519.8 725.4 522.3 724.4 524.7 723.3 C 527.2 722.3 529.6 721.3 532.1 720.2 C 534.6 719.2 537.0 718.1 539.5 717.1 C 541.9 716.1 544.4 715.1 546.9 714.0 C 549.3 713.0 551.8 712.0 554.3 710.9 C 556.7 709.9 559.2 708.9 561.7 707.9 C 564.1 706.8 566.6 705.8 569.1 704.8 C 571.5 703.8 574.0 702.7 576.4 701.7 C 578.9 700.7 581.4 699.6 583.8 698.6 C 586.3 697.6 588.8 696.6 591.2 695.5 C 593.7 694.5 596.2 693.5 598.6 692.5 C 601.1 691.4 603.6 690.4 606.0 689.4 C 608.5 688.4 611.0 687.4 613.4 686.3 C 615.9 685.3 618.4 684.3 620.8 683.3 C 623.3 682.3 625.8 681.3 628.2 680.2 C 630.7 679.2 633.2 678.2 635.6 677.2 C 638.1 676.2 640.6 675.1 643.0 674.1 C 645.5 673.1 648.0 672.1 650.4 671.1 C 652.9 670.0 655.4 669.0 657.8 668.0 C 660.3 667.0 662.8 665.9 665.2 664.9 C 667.7 663.9 670.2 662.9 672.6 661.8 C 675.1 660.8 677.5 659.8 680.0 658.7 C 682.5 657.7 684.9 656.6 687.3 655.5 C 689.8 654.4 692.2 653.3 694.5 652.1 C 696.9 650.9 699.3 649.7 701.6 648.3 C 703.8 647.0 706.1 645.6 708.2 644.1 C 710.3 642.6 712.4 641.0 714.4 639.2 C 716.3 637.5 718.2 635.7 719.9 633.7 C 721.6 631.8 723.1 629.7 724.5 627.5 C 726.0 625.4 727.2 623.1 728.3 620.7 C 729.5 618.4 730.4 615.9 731.2 613.4 C 732.0 610.9 732.7 608.2 733.2 605.6 C 733.8 602.9 734.2 600.2 734.5 597.5 C 734.9 594.7 735.1 591.9 735.3 589.1 C 735.5 586.3 735.6 583.5 735.7 580.6 C 735.8 577.8 735.8 574.9 735.9 572.0 C 735.9 569.1 735.9 566.3 736.0 563.4 C 736.0 560.5 736.0 557.6 736.0 554.8 C 736.1 551.9 736.1 549.0 736.1 546.2 C 736.1 543.3 736.2 540.5 736.2 537.7 C 736.2 534.8 736.3 532.0 736.3 529.2 C 736.3 526.3 736.3 523.5 736.3 520.7 C 736.3 517.9 736.3 515.1 736.3 512.2 C 736.3 509.4 736.3 506.6 736.3 503.8 C 736.2 500.9 736.2 498.1 736.2 495.2 C 736.1 492.4 736.1 489.5 736.1 486.7 C 736.1 483.8 736.0 481.0 736.0 478.1 C 736.0 475.2 736.0 472.3 736.0 469.4 C 736.0 466.6 735.9 463.7 735.9 460.8 C 735.9 457.9 735.9 455.0 735.9 452.1 C 735.9 449.2 735.9 446.3 735.9 443.5 C 735.9 440.6 735.9 437.7 735.9 434.8 C 735.9 431.9 735.9 429.0 735.9 426.1 C 735.9 423.2 735.9 420.3 735.9 417.5 C 735.9 414.6 735.9 411.7 735.9 408.8 C 735.9 405.9 735.9 403.0 735.9 400.1 C 735.9 397.2 735.9 394.3 735.9 391.4 C 735.9 388.6 735.9 385.7 735.9 382.8 C 735.9 379.9 735.9 377.0 735.9 374.1 C 735.9 371.2 735.9 368.3 735.9 365.4 C 735.9 362.6 735.9 359.7 735.9 356.8 C 735.9 353.9 735.9 351.0 735.9 348.1 C 735.9 345.2 735.9 342.3 735.9 339.4 C 735.9 336.5 735.9 333.7 735.9 330.8 C 735.9 327.9 735.9 325.0 735.9 322.1 C 735.9 319.2 735.9 316.3 735.9 313.4 C 735.9 310.5 735.9 307.7 735.9 304.8 C 735.9 301.9 735.9 299.0 735.9 296.1 C 735.9 293.2 735.9 290.3 735.9 287.4 C 735.9 284.5 735.9 281.7 735.9 278.8 C 735.9 275.9 735.9 273.0 735.9 270.1 C 735.9 267.2 735.9 264.3 735.9 261.4 C 735.9 258.5 735.9 255.6 735.9 252.8 C 735.9 249.9 735.9 247.0 735.9 244.1 C 735.9 241.2 735.9 238.3 735.9 235.4 C 735.9 232.5 735.9 229.6 735.9 226.8 C 735.9 223.9 735.9 221.0 735.9 218.1 C 735.9 215.2 735.9 212.3 735.9 209.4 C 735.9 206.5 735.9 203.6 735.9 200.8 C 735.9 197.9 735.9 195.0 735.9 192.1 C 735.9 189.2 735.9 186.3 735.9 183.4 C 735.9 180.5 735.9 177.6 735.9 174.7 C 735.9 171.9 735.9 169.0 735.9 166.1 C 735.9 163.2 735.9 160.3 735.9 157.4 C 735.9 154.5 735.9 151.6 735.9 148.7 C 735.9 145.9 735.9 143.0 735.9 140.1 C 735.9 137.2 735.9 134.3 735.9 131.4 C 735.9 128.5 735.9 125.6 735.9 122.7 C 735.9 119.8 735.9 117.0 735.9 114.1 C 735.9 111.2 735.9 108.3 735.9 105.4 C 735.9 102.5 735.9 99.6 735.9 96.7 C 735.9 93.8 735.9 91.0 735.9 88.1 C 735.9 85.2 735.9 82.3 735.9 79.4 C 735.9 76.5 735.8 73.7 735.7 70.8 C 735.7 68.0 735.6 65.1 735.4 62.3 C 735.2 59.5 735.0 56.7 734.7 53.9 C 734.3 51.2 733.9 48.5 733.3 45.9 C 732.7 43.3 732.1 40.8 731.2 38.3 C 730.3 35.9 729.3 33.6 728.0 31.4 C 726.8 29.3 725.4 27.3 723.8 25.4 C 722.2 23.6 720.5 21.9 718.5 20.4 C 716.6 19.0 714.5 17.7 712.3 16.7 C 710.1 15.7 707.8 14.8 705.4 14.2 C 703.0 13.6 700.5 13.2 698.0 13.1 C 695.5 12.9 692.9 12.9 690.4 13.1 C 687.8 13.3 685.3 13.7 682.7 14.2 C 680.2 14.8 677.6 15.4 675.1 16.2 C 672.6 17.0 670.1 17.9 667.6 18.9 C 665.1 19.8 662.7 20.9 660.2 21.9 C 657.8 23.0 655.4 24.1 653.0 25.3 C 650.5 26.4 648.1 27.6 645.7 28.8 C 643.3 30.0 641.0 31.2 638.6 32.4 C 636.2 33.6 633.8 34.8 631.4 36.1 C 629.0 37.3 626.6 38.5 624.3 39.7 C 621.9 40.9 619.5 42.2 617.1 43.4 C 614.7 44.6 612.3 45.8 609.9 47.0 C 607.6 48.2 605.2 49.4 602.8 50.6 C 600.4 51.8 598.0 53.0 595.6 54.2 C 593.2 55.4 590.8 56.6 588.4 57.8 C 586.0 59.0 583.6 60.2 581.3 61.4 C 578.9 62.6 576.5 63.9 574.1 65.1 C 571.7 66.3 569.3 67.5 566.9 68.7 C 564.5 69.9 562.2 71.2 559.8 72.4 C 557.4 73.6 555.0 74.9 552.6 76.1 C 550.3 77.3 547.9 78.6 545.5 79.8 C 543.1 81.0 540.7 82.2 538.4 83.5 C 536.0 84.7 533.6 85.9 531.2 87.1 C 528.8 88.3 526.4 89.5 524.0 90.7 C 521.6 91.9 519.2 93.1 516.8 94.3 C 514.4 95.4 512.0 96.6 509.6 97.8 C 507.2 99.0 504.8 100.2 502.4 101.4 C 500.0 102.6 497.7 103.8 495.3 105.0 C 492.9 106.2 490.5 107.4 488.1 108.6 C 485.7 109.8 483.3 111.1 481.0 112.3 C 478.6 113.5 476.2 114.8 473.8 116.0 C 471.5 117.2 469.1 118.5 466.7 119.7 C 464.3 120.9 461.9 122.2 459.6 123.4 C 457.2 124.6 454.8 125.8 452.4 127.1 C 450.0 128.3 447.6 129.5 445.2 130.7 C 442.9 131.9 440.5 133.1 438.1 134.3 C 435.7 135.5 433.3 136.7 430.9 138.0 C 428.5 139.2 426.1 140.4 423.8 141.6 C 421.4 142.8 419.0 144.0 416.6 145.3 C 414.2 146.5 411.8 147.7 409.5 149.0 C 407.1 150.2 404.7 151.4 402.3 152.6 C 399.9 153.9 397.6 155.1 395.2 156.3 C 392.8 157.6 390.4 158.8 388.0 160.0 C 385.7 161.2 383.3 162.5 380.9 163.7 C 378.5 164.9 376.1 166.1 373.7 167.3 C 371.4 168.5 369.0 169.7 366.6 170.9 C 364.2 172.1 361.8 173.2 359.4 174.3 C 357.0 175.3 354.6 176.3 352.2 177.2 C 349.8 178.1 347.4 178.9 345.0 179.4 C 342.6 180.0 340.2 180.5 337.8 180.7 C 335.4 181.0 333.0 181.0 330.6 180.8 C 328.3 180.7 325.9 180.3 323.5 179.7 C 321.2 179.2 318.8 178.4 316.5 177.5 C 314.2 176.6 311.8 175.5 309.5 174.3 C 307.2 173.1 304.9 171.8 302.6 170.5 C 300.3 169.1 298.0 167.7 295.7 166.3 C 293.5 164.9 291.2 163.4 288.9 161.9 C 286.6 160.4 284.4 158.9 282.1 157.5 C 279.8 156.0 277.5 154.5 275.3 153.0 C 273.0 151.5 270.7 150.0 268.4 148.5 C 266.2 147.0 263.9 145.5 261.6 144.0 C 259.4 142.5 257.1 141.0 254.8 139.5 C 252.6 138.0 250.3 136.5 248.0 135.0 C 245.8 133.5 243.5 132.0 241.2 130.5 C 239.0 129.0 236.7 127.5 234.4 126.0 C 232.1 124.6 229.9 123.1 227.6 121.6 C 225.3 120.1 223.1 118.6 220.8 117.1 C 218.5 115.6 216.2 114.1 214.0 112.6 C 211.7 111.1 209.4 109.7 207.2 108.2 C 204.9 106.7 202.6 105.2 200.3 103.7 C 198.1 102.2 195.8 100.7 193.5 99.2 C 191.3 97.7 189.0 96.2 186.7 94.6 C 184.5 93.1 182.2 91.6 180.0 90.1 C 177.7 88.6 175.4 87.1 173.2 85.6 C 170.9 84.1 168.6 82.6 166.4 81.1 C 164.1 79.6 161.8 78.1 159.6 76.6 C 157.3 75.1 155.0 73.5 152.8 72.0 C 150.5 70.5 148.2 69.0 146.0 67.5 C 143.7 66.0 141.4 64.5 139.2 63.0 C 136.9 61.5 134.7 60.0 132.4 58.5 C 130.1 57.0 127.8 55.5 125.6 54.0 C 123.3 52.5 121.0 51.0 118.8 49.5 C 116.5 48.0 114.2 46.5 111.9 45.1 C 109.7 43.6 107.4 42.1 105.1 40.6 C 102.8 39.1 100.6 37.6 98.3 36.2 C 96.0 34.7 93.7 33.2 91.5 31.7 C 89.2 30.2 86.9 28.7 84.6 27.3 C 82.4 25.8 80.1 24.3 77.8 22.9 C 75.5 21.4 73.2 19.9 70.9 18.5 C 68.6 17.1 66.3 15.6 64.0 14.3 C 61.7 13.0 59.4 11.6 57.0 10.4 C 54.7 9.2 52.3 8.1 49.9 7.1 C 47.6 6.2 45.2 5.3 42.8 4.7 C 40.4 4.1 38.0 3.6 35.7 3.5 C 33.4 3.3 31.0 3.3 28.8 3.7 Z" fill="#FCA711" fill-rule="evenodd"/><path d="M 427.7 347.1 L 625.1 270.9" fill="none" stroke="#F4F0E9" stroke-width="34.6" stroke-linecap="round"/><path d="M 431.2 461.4 L 628.6 381.7" fill="none" stroke="#FCA711" stroke-width="34.6" stroke-linecap="round"/><path d="M 434.6 572.2 L 632.0 492.5" fill="none" stroke="#F4F0E9" stroke-width="34.6" stroke-linecap="round"/><path d="M 821.0 308.9 A 126.4 126.4 0 0 1 821.0 534.2" fill="none" stroke="#FCA711" stroke-width="32.9" stroke-linecap="round"/><path d="M 868.6 232.2 A 216.5 216.5 0 0 1 868.6 610.9" fill="none" stroke="#FCA711" stroke-width="32.9" stroke-linecap="round"/></svg>